# xmcd
#
# Track frame offsets:
#	150
#	13252
#	30039
#	47896
#	61488
#	80269
#	91493
#	105085
#	119504
#	131836
#	144809
#	156916
#	172811
#
# Disc length: 2509 seconds
#
# Revision: 0
# Processed by: cddbd v1.5.1PL2 Copyright (c) Steve Scherf et al.
# Submitted via: dBpowerAMP V4.0
#
DISCID=9b09cb0d
DTITLE=Gaúcho da Fronteira - 30 Anos de Sucesso
DYEAR=2003
DGENRE=Gauchesca
TTITLE0=Forró da Carolina
TTITLE1=Desamarre o Nó
TTITLE2=Manda Brasa
TTITLE3=Ligeiramente Apaixonado
TTITLE4=Guri
TTITLE5=A Sanga da Vizinha
TTITLE6=Nos Pelegos Não Vai Dá
TTITLE7=Tá Podendo
TTITLE8=A Ultima do Dedo
TTITLE9=Truco de Mano
TTITLE10=Energia Positiva
TTITLE11=O Candidato
TTITLE12=Mi Herencia
EXTD=
EXTT0=
EXTT1=
EXTT2=
EXTT3=
EXTT4=
EXTT5=
EXTT6=
EXTT7=
EXTT8=
EXTT9=
EXTT10=
EXTT11=
EXTT12=
PLAYORDER=
